<svg width="19" height="18" viewBox="0 0 19 18" fill="none" xmlns="http://www.w3.org/2000/svg">
<g clip-path="url(#clip0_12_3293)">
<path d="M15.2488 6.88426C15.2017 6.74541 15.1149 6.6234 14.9992 6.53331C14.8836 6.44321 14.744 6.38896 14.5978 6.37726L10.3221 6.03751L8.47184 1.94176C8.41292 1.80985 8.31707 1.6978 8.19588 1.61915C8.07468 1.54051 7.93331 1.49861 7.78884 1.49854C7.64436 1.49846 7.50294 1.54019 7.38166 1.61871C7.26038 1.69722 7.16441 1.80916 7.10534 1.94101L5.25509 6.03751L0.979344 6.37726C0.835685 6.38864 0.698347 6.44117 0.58376 6.52856C0.469173 6.61595 0.382189 6.7345 0.333214 6.87003C0.284239 7.00556 0.275347 7.15234 0.307603 7.29279C0.339858 7.43324 0.411894 7.56143 0.515094 7.66201L3.67484 10.7423L2.55734 15.5813C2.52341 15.7277 2.53429 15.881 2.58856 16.0212C2.64283 16.1615 2.73799 16.2821 2.8617 16.3676C2.9854 16.453 3.13193 16.4994 3.28228 16.5005C3.43263 16.5016 3.57985 16.4576 3.70484 16.374L7.78859 13.6515L11.8723 16.374C12.0001 16.4588 12.1508 16.5025 12.3041 16.4991C12.4574 16.4958 12.606 16.4455 12.7299 16.3552C12.8538 16.2649 12.9471 16.1387 12.9972 15.9938C13.0473 15.8489 13.0518 15.6921 13.0101 15.5445L11.6383 10.7445L15.0403 7.68301C15.2631 7.48201 15.3448 7.16851 15.2488 6.88426Z" fill="#FFBB00"/>
</g>
<defs>
<clipPath id="clip0_12_3293">
<rect width="18.3462" height="18" fill="white"/>
</clipPath>
</defs>
</svg>
