<svg width="19" height="18" viewBox="0 0 19 18" fill="none" xmlns="http://www.w3.org/2000/svg">
<g clip-path="url(#clip0_12_3268)">
<path d="M7.78857 1.99854C7.83643 1.99856 7.88316 2.01257 7.92334 2.03857C7.94341 2.0516 7.96165 2.06747 7.97705 2.08545L8.01514 2.146L8.01611 2.14795L9.8667 6.24365L9.98779 6.51221L10.2827 6.53564L14.5581 6.87549C14.5824 6.87744 14.606 6.88339 14.6284 6.89209L14.6919 6.92822C14.7112 6.94324 14.7287 6.96029 14.7427 6.97998L14.7749 7.04541C14.7987 7.11684 14.79 7.1933 14.7524 7.25537L14.7056 7.31104L11.3042 10.3726L11.0718 10.5815L11.1577 10.8823L12.5288 15.6792V15.6802C12.5357 15.7047 12.5393 15.7302 12.5386 15.7554L12.5249 15.8306C12.5165 15.8549 12.504 15.8775 12.4888 15.8979L12.4351 15.9517C12.3938 15.9816 12.3444 15.9983 12.2935 15.9995L12.2183 15.9897C12.1938 15.9827 12.1704 15.9718 12.1489 15.9575H12.1499L8.06592 13.2358L7.78857 13.0503L7.51123 13.2358L3.42725 15.9575V15.9585C3.38558 15.9864 3.33576 16.0009 3.28564 16.0005L3.2124 15.9888C3.18896 15.9813 3.16647 15.9707 3.146 15.9565C3.12541 15.9423 3.10664 15.9252 3.09131 15.9058L3.05518 15.8403C3.04617 15.817 3.04031 15.7927 3.03857 15.7681L3.04443 15.6938L4.16162 10.855L4.2251 10.5806L4.02393 10.3843L0.86377 7.3042C0.846639 7.2875 0.832422 7.26819 0.820801 7.24756L0.794434 7.18115C0.789064 7.15777 0.787147 7.13356 0.788574 7.10986L0.803223 7.03955C0.811402 7.017 0.823339 6.99618 0.837402 6.97705L0.887207 6.92627C0.906421 6.91163 0.927355 6.89961 0.949707 6.89111L1.01904 6.87549L5.29443 6.53564L5.58936 6.51221L5.71045 6.24365L7.56104 2.14697L7.56201 2.14502C7.58164 2.10145 7.61369 2.06454 7.65381 2.03857C7.67396 2.02556 7.69549 2.01499 7.71826 2.0083L7.78857 1.99854Z" stroke="#FFBB00"/>
</g>
<defs>
<clipPath id="clip0_12_3268">
<rect width="18.3462" height="18" fill="white"/>
</clipPath>
</defs>
</svg>
